# xmcd CD database file
#
# Track frame offsets:
#	150
#	18463
#	55705
#	85826
#	100901
#	123619
#	152903
#	187786
#
# Disc length: 3267 seconds
#
# Revision: 0
# Processed by: cddbd v1.5.2PL0 Copyright (c) Steve Scherf et al.
# Submitted via: CDex 1.51
#
DISCID=5c0cc108
DTITLE=James Morrison - European Session
DYEAR=1998
DGENRE=Jazz
TTITLE0=The Spot
TTITLE1=Jam De 'Morrisola
TTITLE2=Alone
TTITLE3=A Brush With Bunj
TTITLE4=KB19
TTITLE5=Zog's Jog
TTITLE6=Talma
TTITLE7=From This Day
EXTD=YEAR: 1998
EXTT0=
EXTT1=
EXTT2=
EXTT3=
EXTT4=
EXTT5=
EXTT6=
EXTT7=
PLAYORDER=
